<?xml version="1.0" standalone="no"?>
<!DOCTYPE svg PUBLIC "-//W3C//DTD SVG 20010904//EN"
 "http://www.w3.org/TR/2001/REC-SVG-20010904/DTD/svg10.dtd">
<svg version="1.0" xmlns="http://www.w3.org/2000/svg"
 width="512.000000pt" height="512.000000pt" viewBox="0 0 512.000000 512.000000"
 preserveAspectRatio="xMidYMid meet">

<g transform="translate(0.000000,512.000000) scale(0.100000,-0.100000)"
 stroke="none">
<path d="M2605 5114 c-331 -35 -576 -104 -850 -238 -635 -312 -1093 -899
-1249 -1601 -65 -296 -63 -680 5 -990 72 -328 218 -639 431 -923 l32 -43 -487
-487 -487 -487 172 -173 173 -172 487 487 487 487 43 -32 c430 -323 902 -483
1423 -483 472 0 900 127 1281 380 563 374 928 948 1031 1621 13 83 18 175 17
330 0 243 -14 362 -69 576 -232 905 -985 1585 -1915 1729 -101 15 -442 28
-525 19z m455 -500 c592 -85 1117 -468 1383 -1009 132 -268 189 -516 189 -820
0 -501 -188 -953 -543 -1306 -293 -292 -648 -467 -1064 -525 -141 -19 -407
-15 -545 10 -779 137 -1379 737 -1516 1516 -25 138 -29 404 -10 545 58 416
233 771 525 1064 419 421 989 610 1581 525z"/>
</g>
</svg>
