<?xml version="1.0" standalone="no"?>
<!DOCTYPE svg PUBLIC "-//W3C//DTD SVG 20010904//EN"
 "http://www.w3.org/TR/2001/REC-SVG-20010904/DTD/svg10.dtd">
<svg version="1.0" xmlns="http://www.w3.org/2000/svg"
 width="512.000000pt" height="512.000000pt" viewBox="0 0 512.000000 512.000000"
 preserveAspectRatio="xMidYMid meet">

<g transform="translate(0.000000,512.000000) scale(0.100000,-0.100000)"
 stroke="none">
<path d="M1960 4999 c-618 -68 -1168 -404 -1512 -924 -79 -118 -188 -343 -232
-475 -139 -424 -139 -890 1 -1310 45 -134 154 -359 230 -475 240 -362 582
-638 984 -795 440 -172 946 -184 1397 -34 198 66 463 207 606 323 21 17 44 31
50 31 6 0 279 -268 606 -596 402 -403 608 -602 635 -615 159 -74 337 96 270
259 -11 26 -200 222 -620 642 l-604 605 50 65 c75 97 156 232 215 355 333 696
252 1510 -213 2133 -76 102 -257 288 -363 372 -279 222 -617 371 -970 426
-118 18 -416 26 -530 13z m423 -414 c380 -50 717 -220 982 -497 120 -125 198
-232 270 -370 101 -195 153 -356 180 -565 102 -776 -369 -1526 -1114 -1773
-149 -50 -235 -67 -398 -82 -330 -29 -682 53 -978 230 -380 227 -672 631 -765
1059 -92 429 -13 880 217 1242 122 192 321 390 514 514 201 128 494 230 724
250 102 9 264 6 368 -8z"/>
</g>
</svg>
